<?xml version="1.0" standalone="no"?>
<!DOCTYPE svg PUBLIC "-//W3C//DTD SVG 20010904//EN"
 "http://www.w3.org/TR/2001/REC-SVG-20010904/DTD/svg10.dtd">
<svg version="1.0" xmlns="http://www.w3.org/2000/svg"
 width="672.000000pt" height="672.000000pt" viewBox="0 0 672.000000 672.000000"
 preserveAspectRatio="xMidYMid meet">
<metadata>
Created by potrace 1.11, written by Peter Selinger 2001-2013
</metadata>
<g transform="translate(0.000000,672.000000) scale(0.100000,-0.100000)"
fill="#000000" stroke="none">
<path d="M2411 6685 c-39 -14 -79 -38 -103 -62 -168 -162 -2028 -2027 -2028
-2034 0 -4 -6 -14 -13 -21 -21 -22 -47 -90 -55 -143 -11 -67 -8 -2462 3 -2500
26 -98 39 -112 929 -1001 701 -701 881 -876 921 -895 73 -34 188 -33 265 4 71
34 123 85 157 155 l28 57 0 1168 1 1168 839 840 c462 461 842 839 845 839 3 0
383 -378 845 -839 l839 -839 1 -1169 1 -1168 28 -57 c35 -69 79 -117 143 -155
43 -25 58 -28 133 -28 73 0 93 4 142 28 71 35 123 87 157 157 l26 55 1 1235
c1 1337 2 1305 -53 1400 -16 27 -385 405 -917 938 -490 492 -896 899 -902 905
-6 7 -65 64 -130 128 -153 149 -208 179 -320 175 -32 -1 -84 -11 -114 -21 -52
-18 -111 -76 -1091 -1055 -833 -831 -1042 -1045 -1063 -1087 -14 -29 -24 -53
-21 -53 3 0 0 -10 -7 -22 -9 -18 -12 -213 -13 -855 -1 -458 -3 -835 -6 -838
-3 -3 -239 228 -524 513 l-517 518 0 594 c0 327 1 600 2 605 1 6 1 15 0 20 -5
24 -1 225 5 235 3 5 2 10 -2 10 -5 0 -8 21 -6 48 2 26 3 70 3 97 -1 28 -1 157
-2 288 l0 238 838 839 c462 462 842 838 847 837 4 -1 188 -182 410 -403 377
-376 436 -428 497 -441 66 -15 115 -17 159 -9 136 27 237 147 245 297 4 57
-18 142 -46 183 -36 52 -1084 1096 -1101 1096 -8 0 -17 5 -19 11 -4 13 -77 30
-143 34 -33 2 -72 -5 -114 -20z"/>
</g>
</svg>
